<?xml version="1.0" encoding="iso-8859-1"?>
<!-- Generator: Adobe Illustrator 18.1.1, SVG Export Plug-In . SVG Version: 6.00 Build 0)  -->
<svg version="1.1" id="Capa_1" xmlns="http://www.w3.org/2000/svg" xmlns:xlink="http://www.w3.org/1999/xlink" x="0px" y="0px"
	 viewBox="0 0 308.559 308.559" style="enable-background:new 0 0 308.559 308.559;" xml:space="preserve">
<g>
	<g>
		<path style="fill:#010002;" d="M79.992,308.559c-0.543,0-1.354-0.036-2.232-0.34c-18.635-6.426-30.64-25.156-41.231-41.679
			l-1.874-2.93c-18.354-28.498-28.056-62.187-28.056-97.415C6.599,74.556,72.85,0,154.279,0s147.68,74.55,147.68,166.195
			c0,28.176-6.402,56.041-18.515,80.571c-0.943,1.909-1.856,3.861-2.763,5.83c-4.099,8.831-8.336,17.972-16.116,23.927
			c-3.861,2.96-8.897,2.96-13.336,2.96c-7.423,0-14.464-2.512-20.407-7.268c-6.325-5.066-8.503-12.268-10.812-19.882
			c-0.448-1.486-0.901-2.989-1.396-4.493c-5.287-16.134-25.103-21.857-40.467-21.857c-20.484,0-44.143,13.39-49.752,38.982
			c-0.28,1.283-0.537,2.572-0.782,3.843c-0.871,4.439-1.778,9.034-3.861,13.264c-8.013,16.313-24.243,26.457-42.371,26.457
			L79.992,308.559z M154.273,5.967C76.131,5.967,12.56,77.844,12.56,166.195c0,34.083,9.368,66.656,27.102,94.187l1.886,2.936
			c10.567,16.475,21.487,33.51,38.152,39.262l0.292,0.012l1.384-0.042c15.83,0,30.013-8.855,37.012-23.122
			c1.736-3.52,2.53-7.536,3.359-11.785c0.257-1.313,0.519-2.631,0.812-3.968c6.277-28.671,32.71-43.666,55.575-43.666
			c17.358,0,39.865,6.802,46.142,25.968c0.507,1.551,0.973,3.097,1.432,4.618c2.118,6.999,3.95,13.05,8.825,16.952
			c4.869,3.896,10.621,5.961,16.618,5.961c3.723,0,7.512,0,9.774-1.73c6.611-5.066,10.538-13.521,14.326-21.701
			c0.931-2.005,1.862-4.004,2.828-5.961c11.707-23.712,17.895-50.659,17.895-77.927C295.987,77.844,232.416,5.967,154.273,5.967z"/>
	</g>
	<g>
		<path style="fill:#010002;" d="M84.163,267.745c-12.608,0-22.871-10.263-22.871-22.877c0-12.608,10.263-22.871,22.871-22.871
			s22.871,10.263,22.871,22.871C107.034,257.482,96.771,267.745,84.163,267.745z M84.163,227.964
			c-9.32,0-16.904,7.584-16.904,16.904s7.584,16.91,16.904,16.91s16.904-7.584,16.904-16.91S93.483,227.964,84.163,227.964z"/>
	</g>
	<g>
		<path style="fill:#010002;" d="M171.297,129.123c-8.849,0-15.693-3.168-19.267-8.926c-7.339-11.85,1.647-30.27,20.472-41.935
			c8.956-5.555,18.688-8.604,27.406-8.604c8.849,0,15.693,3.168,19.267,8.926c7.339,11.85-1.647,30.27-20.472,41.935
			C189.74,126.074,180.009,129.123,171.297,129.123z M199.902,75.624c-7.512,0-16.349,2.81-24.255,7.709
			c-15.448,9.571-23.945,25.019-18.545,33.719c2.44,3.938,7.482,6.104,14.195,6.104c7.512,0,16.349-2.81,24.255-7.709
			c15.448-9.571,23.945-25.019,18.545-33.719C211.657,77.79,206.615,75.624,199.902,75.624z"/>
	</g>
	<g>
		<path style="fill:#010002;" d="M224.008,162.657c-8.855,0-15.699-3.168-19.267-8.926c-7.345-11.844,1.641-30.27,20.466-41.941
			c8.956-5.549,18.682-8.604,27.4-8.604c8.855,0,15.699,3.174,19.267,8.932c7.339,11.85-1.641,30.27-20.466,41.935
			C242.452,159.602,232.72,162.657,224.008,162.657z M252.601,109.146c-7.512,0-16.349,2.81-24.249,7.709
			c-15.448,9.577-23.939,25.025-18.539,33.725c2.44,3.938,7.482,6.104,14.195,6.104c7.512,0,16.349-2.81,24.255-7.709
			c15.448-9.571,23.939-25.013,18.539-33.719C264.362,111.318,259.314,109.146,252.601,109.146z"/>
	</g>
	<g>
		<path style="fill:#010002;" d="M237.523,215.016c-8.855,0-15.699-3.174-19.267-8.932c-3.652-5.889-3.359-13.604,0.823-21.725
			c3.926-7.614,10.901-14.792,19.643-20.216c8.956-5.555,18.688-8.604,27.406-8.604c8.849,0,15.693,3.168,19.267,8.926
			c7.339,11.85-1.647,30.276-20.472,41.941C255.967,211.955,246.241,215.016,237.523,215.016z M266.128,161.505
			c-7.512,0-16.355,2.81-24.255,7.709c-7.835,4.857-14.046,11.206-17.489,17.883c-3.186,6.17-3.562,11.802-1.056,15.836
			c2.44,3.944,7.482,6.11,14.195,6.11c7.512,0,16.349-2.81,24.249-7.709c15.448-9.571,23.939-25.019,18.545-33.725
			C277.883,163.671,272.835,161.505,266.128,161.505z"/>
	</g>
</g>
<g>
</g>
<g>
</g>
<g>
</g>
<g>
</g>
<g>
</g>
<g>
</g>
<g>
</g>
<g>
</g>
<g>
</g>
<g>
</g>
<g>
</g>
<g>
</g>
<g>
</g>
<g>
</g>
<g>
</g>
</svg>
